<?xml version="1.0" encoding="utf-8"?>
<!-- Generator: Adobe Illustrator 16.0.0, SVG Export Plug-In . SVG Version: 6.00 Build 0)  -->
<!DOCTYPE svg PUBLIC "-//W3C//DTD SVG 1.1//EN" "http://www.w3.org/Graphics/SVG/1.1/DTD/svg11.dtd">
<svg version="1.1" id="Capa_1" xmlns="http://www.w3.org/2000/svg" xmlns:xlink="http://www.w3.org/1999/xlink" x="0px" y="0px"
	 width="40.616px" height="59.104px" viewBox="0 0 40.616 59.104" enable-background="new 0 0 40.616 59.104" xml:space="preserve">
<g>
	<path fill="#9EACAF" d="M37.524,10.845L18.771,29.599l18.753,18.753c0.447,0.448,0.671,0.978,0.671,1.59s-0.224,1.143-0.671,1.589
		l-5.862,5.863c-0.447,0.446-0.978,0.671-1.59,0.671s-1.142-0.225-1.589-0.671L2.278,31.188c-0.448-0.446-0.672-0.977-0.672-1.589
		s0.224-1.142,0.672-1.59L28.483,1.804c0.447-0.447,0.977-0.671,1.589-0.671s1.143,0.224,1.59,0.671l5.862,5.862
		c0.447,0.448,0.671,0.978,0.671,1.59S37.972,10.397,37.524,10.845z"/>
</g>
<g>
</g>
<g>
</g>
<g>
</g>
<g>
</g>
<g>
</g>
</svg>
