<?xml version="1.0" encoding="utf-8"?>
<!-- Generator: Adobe Illustrator 16.0.0, SVG Export Plug-In . SVG Version: 6.00 Build 0)  -->
<!DOCTYPE svg PUBLIC "-//W3C//DTD SVG 1.1//EN" "http://www.w3.org/Graphics/SVG/1.1/DTD/svg11.dtd">
<svg version="1.1" id="Capa_1" xmlns="http://www.w3.org/2000/svg" xmlns:xlink="http://www.w3.org/1999/xlink" x="0px" y="0px"
	 width="40.616px" height="59.104px" viewBox="0 0 40.616 59.104" enable-background="new 0 0 40.616 59.104" xml:space="preserve">
<g>
	<path fill="#9EACAF" d="M2.277,48.353L21.03,29.599L2.277,10.846c-0.447-0.448-0.671-0.978-0.671-1.59S1.83,8.113,2.277,7.667
		L8.14,1.804c0.447-0.446,0.978-0.671,1.59-0.671s1.142,0.225,1.589,0.671L37.523,28.01c0.448,0.446,0.672,0.977,0.672,1.589
		s-0.224,1.142-0.672,1.59L11.318,57.394c-0.447,0.447-0.977,0.671-1.589,0.671s-1.143-0.224-1.59-0.671l-5.862-5.862
		c-0.447-0.448-0.671-0.978-0.671-1.59S1.83,48.8,2.277,48.353z"/>
</g>
<g>
</g>
<g>
</g>
<g>
</g>
<g>
</g>
<g>
</g>
</svg>
